<?xml version="1.0" encoding="UTF-8" standalone="no"?>
<!-- Created with Inkscape (http://www.inkscape.org/) -->

<svg
   xmlns:dc="http://purl.org/dc/elements/1.1/"
   xmlns:cc="http://creativecommons.org/ns#"
   xmlns:rdf="http://www.w3.org/1999/02/22-rdf-syntax-ns#"
   xmlns:svg="http://www.w3.org/2000/svg"
   xmlns="http://www.w3.org/2000/svg"
   xmlns:sodipodi="http://sodipodi.sourceforge.net/DTD/sodipodi-0.dtd"
   xmlns:inkscape="http://www.inkscape.org/namespaces/inkscape"
   width="160.71875"
   height="160.71875"
   id="svg2"
   version="1.1"
   inkscape:version="0.48.4 r9939"
   sodipodi:docname="New document 1">
  <defs
     id="defs4" />
  <sodipodi:namedview
     id="base"
     pagecolor="#ffffff"
     bordercolor="#666666"
     borderopacity="1.0"
     inkscape:pageopacity="0.0"
     inkscape:pageshadow="2"
     inkscape:zoom="1.15"
     inkscape:cx="96.015179"
     inkscape:cy="93.906104"
     inkscape:document-units="px"
     inkscape:current-layer="layer4"
     showgrid="false"
     fit-margin-top="0"
     fit-margin-left="0"
     fit-margin-right="0"
     fit-margin-bottom="0"
     inkscape:window-width="1034"
     inkscape:window-height="716"
     inkscape:window-x="0"
     inkscape:window-y="24"
     inkscape:window-maximized="0" />
  <metadata
     id="metadata7">
    <rdf:RDF>
      <cc:Work
         rdf:about="">
        <dc:format>image/svg+xml</dc:format>
        <dc:type
           rdf:resource="http://purl.org/dc/dcmitype/StillImage" />
        <dc:title></dc:title>
      </cc:Work>
    </rdf:RDF>
  </metadata>
  <g
     inkscape:groupmode="layer"
     id="layer2"
     inkscape:label="cyantrunk"
     style="display:inline"
     transform="translate(-3.6875,-891.40625)" />
  <g
     inkscape:groupmode="layer"
     id="layer3"
     inkscape:label="bluetrunk"
     style="display:inline"
     transform="translate(-3.6875,-891.40625)" />
  <g
     inkscape:groupmode="layer"
     id="layer5"
     inkscape:label="inner ring"
     transform="translate(-3.6875,-891.40625)" />
  <g
     inkscape:groupmode="layer"
     id="layer4"
     inkscape:label="outer ring"
     transform="translate(-3.6875,-891.40625)">
    <g
       id="g4584">
      <path
         sodipodi:nodetypes="csssssscssssscssscsssssssssssscsccscasssssssssc"
         inkscape:connector-curvature="0"
         id="path3783"
         d="m 96.503497,912.15239 c 0,0 -12.880865,-1.99359 -19.23077,-1.04895 -9.08093,1.35093 -18.047152,4.64194 -25.874126,9.44056 -5.975817,3.6637 -11.112949,8.77816 -15.384615,14.33567 -4.82983,6.2837 -8.909486,13.38845 -11.188811,20.97902 -2.154653,7.17539 -2.430028,14.89307 -2.097902,22.37762 0.199642,4.49899 0.926066,9.04809 2.447552,13.28671 1.216223,3.3882 5.244755,9.44058 5.244755,9.44058 0,0 -0.663427,-7.28755 0,-10.83918 0.711396,-3.80843 2.236094,-7.49704 4.195805,-10.83916 2.219197,-3.78465 5.034044,-7.31582 8.391608,-10.13986 2.876445,-2.41937 6.399359,-3.97286 9.79021,-5.59441 2.596909,-1.24188 5.258248,-2.41394 8.041958,-3.14685 1.593948,-0.41966 4.895105,-0.6993 4.895105,-0.6993 0,0 -0.943913,-2.1909 -1.47909,-4.10926 -0.509833,-1.82751 -0.963226,-3.69904 -1.048951,-5.5944 -0.111088,-2.45612 -0.0861,-6.4919 0.886917,-8.74979 0.49032,-1.13779 1.641124,-2.87522 1.641124,-2.87522 0,0 1.03581,-0.38067 1.790892,0.93808 1.461196,2.55199 1.429744,7.39851 3.411223,11.29968 1.345633,2.6493 4.057882,6.06528 6.455739,7.82023 2.403384,1.75899 7.371354,5.39614 10.131332,6.51544 3.222137,1.30673 7.601419,2.38879 11.077947,2.44755 4.045241,0.0684 8.283761,-0.60981 11.888111,-2.44755 3.23385,-1.64883 6.14917,-4.24528 8.04196,-7.34266 2.07878,-3.40174 2.93248,-7.5576 3.14685,-11.53846 0.15867,-2.94654 -0.21872,-6.0366 -1.3986,-8.74126 -1.36107,-3.12003 -3.50019,-6.09688 -6.29371,-8.04196 -2.51065,-1.74812 -5.69508,-2.51409 -8.74125,-2.7972 -1.87125,-0.17391 -3.87575,-0.061 -5.59441,0.6993 -0.982681,0.43471 -2.447553,2.0979 -2.447553,2.0979 0,0 2.477827,2.58063 3.146853,4.1958 0.31538,0.7614 0.34965,2.44756 0.34965,2.44756 l -1.748251,0.34965 c 0,0 -0.213991,2.9167 0.699301,3.84615 1.24958,1.27169 3.1568,1.25707 4.88913,0.83558 0.72513,-0.17643 1.29952,-1.21539 2.10388,-1.18523 1.2598,0.0472 2.42064,1.0674 3.14685,2.0979 0.83046,1.17843 1.12373,2.7561 1.04895,4.19581 -0.0708,1.36235 -0.58607,2.75034 -1.3986,3.84615 -1.04129,1.40431 -2.55089,2.55471 -4.1958,3.14685 -2.30549,0.82994 -4.95554,0.90261 -7.342662,0.34965 -2.59168,-0.60035 -5.010999,-2.07165 -6.993007,-3.84615 -2.866817,-2.56668 -5.380631,-5.80573 -6.643357,-9.44056 -1.37901,-3.96956 -1.613167,-8.48571 -0.6993,-12.58741 0.748462,-3.35931 2.677001,-6.45933 4.895104,-9.09091 2.193806,-2.60275 8.041959,-6.29371 8.041959,-6.29371 z"
         style="fill:#35bdb5;fill-opacity:1;stroke:none;display:inline" />
      <path
         sodipodi:nodetypes="csssssscssssscssscsssssssssssscsccscasssssssssc"
         inkscape:connector-curvature="0"
         id="path3783-6"
         d="m 69.852814,1030.9649 c 0,0 12.841351,2.2338 19.207798,1.408 9.104597,-1.181 18.130738,-4.304 26.045998,-8.9555 6.04322,-3.5514 11.275,-8.569 15.64977,-14.0457 4.94636,-6.1925 9.15806,-13.21975 11.5788,-20.7664 2.28835,-7.13388 2.70786,-14.84506 2.51563,-22.33451 -0.11557,-4.50194 -0.75686,-9.06381 -2.19891,-13.33012 -1.15269,-3.41033 -5.06745,-9.53692 -5.06745,-9.53692 0,0 0.52717,7.29867 -0.20251,10.83728 -0.78242,3.79449 -2.37577,7.45396 -4.39759,10.75888 -2.28951,3.74253 -5.16984,7.22049 -8.57957,9.98132 -2.92115,2.3652 -6.47247,3.8526 -9.89302,5.41052 -2.61966,1.19314 -5.30243,2.31527 -8.09935,2.99607 -1.6015,0.3898 -4.90731,0.60772 -4.90731,0.60772 0,0 0.90282,2.20815 1.40206,4.13617 0.4756,1.83673 0.89395,3.71639 0.94424,5.61303 0.0652,2.45776 -0.0352,6.49236 -1.05023,8.73166 -0.51149,1.1285 -1.69457,2.8441 -1.69457,2.8441 0,0 -1.04288,0.3609 -1.773028,-0.9713 -1.413268,-2.5789 -1.291282,-7.42403 -3.19952,-11.36153 -1.295904,-2.67397 -3.943864,-6.14004 -6.308511,-7.93948 -2.370096,-1.80358 -7.269252,-5.53292 -10.007833,-6.70358 -3.197166,-1.3667 -7.555466,-2.53039 -11.030293,-2.65409 -4.043255,-0.14397 -8.293705,0.45493 -11.931762,2.22502 -3.264085,1.58811 -6.227406,4.12965 -8.177734,7.19113 -2.141977,3.3623 -3.07317,7.50149 -3.361875,11.47765 -0.213698,2.94305 0.105895,6.03958 1.235046,8.76588 1.302536,3.1449 3.385665,6.1612 6.142361,8.1582 2.477548,1.7947 5.64711,2.62 8.687456,2.96 1.867683,0.2088 3.873921,0.1337 5.606511,-0.5946 0.990705,-0.4162 2.486309,-2.0519 2.486309,-2.0519 0,0 -2.429171,-2.6265 -3.067909,-4.2539 -0.301129,-0.7671 -0.30387,-2.4536 -0.30387,-2.4536 l 1.754486,-0.3169 c 0,0 0.268447,-2.9122 -0.627319,-3.8586 -1.225606,-1.2948 -3.132762,-1.3159 -4.872669,-0.9268 -0.728301,0.1629 -1.322,1.1909 -2.125655,1.1458 -1.258697,-0.071 -2.40028,-1.1125 -3.107113,-2.1563 -0.808289,-1.19386 -1.072042,-2.77669 -0.97037,-4.21478 0.09625,-1.36078 0.637351,-2.7389 1.470213,-3.81935 1.06735,-1.3846 2.59818,-2.50659 4.253865,-3.0679 2.320599,-0.7867 4.971534,-0.80987 7.347911,-0.21241 2.580006,0.64866 4.971423,2.16491 6.919933,3.97613 2.818366,2.6198 5.271213,5.90528 6.465816,9.56311 1.304607,3.9946 1.454333,8.5143 0.464015,12.5982 -0.811126,3.3448 -2.797221,6.4082 -5.064105,8.9979 -2.242062,2.5612 -8.158142,6.1424 -8.158142,6.1424 z"
         style="fill:#0079ac;fill-opacity:1;stroke:none;display:inline" />
      <path
         transform="translate(-0.87414408,-0.29825735)"
         d="m 155.60345,972.62079 c 0,39.04081 -31.64884,70.68961 -70.689655,70.68961 -39.040816,0 -70.689651,-31.6488 -70.689651,-70.68961 0,-39.04082 31.648835,-70.68965 70.689651,-70.68965 39.040815,0 70.689655,31.64883 70.689655,70.68965 z"
         sodipodi:ry="70.689651"
         sodipodi:rx="70.689651"
         sodipodi:cy="972.62079"
         sodipodi:cx="84.913795"
         id="path4579"
         style="fill:none;stroke:#35bdb5;stroke-width:2.9000001;stroke-linecap:round;stroke-linejoin:round;stroke-miterlimit:4;stroke-opacity:1;stroke-dasharray:none"
         sodipodi:type="arc" />
      <path
         d="m 162.06897,971.75873 c 0,43.08777 -34.92951,78.01727 -78.017243,78.01727 -43.087733,0 -78.0172421,-34.9295 -78.0172421,-78.01727 0,-43.08774 34.9295091,-78.01724 78.0172421,-78.01724 43.087733,0 78.017243,34.9295 78.017243,78.01724 z"
         sodipodi:ry="78.017242"
         sodipodi:rx="78.017242"
         sodipodi:cy="971.75873"
         sodipodi:cx="84.051727"
         id="path4577"
         style="fill:none;stroke:#0079ac;stroke-width:4.69999981;stroke-miterlimit:4;stroke-opacity:1;stroke-dasharray:none"
         sodipodi:type="arc" />
    </g>
  </g>
</svg>
